# xmcd
# Track frame offsets:
# 182
# 11355
# 23430
# 35815
# 47202
# 59542
# 74630
# 86447
# 97917
# 109965
#
# Disc length: 1669 seconds
# Revision: 2
# Processed by: cddbd v1.5.1PL2 Copyright (c) Steve Scherf et al.
# Submitted via: VisiTrax 2.10.0.248 - For more info visit www.synapsa.com
#
DISCID=7f06830a
DTITLE=Various Artist - Country Classics
DYEAR=60
DGENRE=Country - 60's
TTITLE0=Conway Twitty - Hello Darlin'
TTITLE1=Merle Haggard - Okie From Muskogee
TTITLE2=Freddie Fender - Wasted Days and Wasted Nights
TTITLE3=Donna Fargo - Happiest Girl In The Whole USA
TTITLE4=Johnny Paycheck - Take This Job And Shove It
TTITLE5=Jeannie C. Riley - Harper Valley P.T.A.
TTITLE6=Sammi Smith - Help Me Make It Through The Night
TTITLE7=Kitty Wells - It Wasn't God Who Made Honky Tonk Angels
TTITLE8=Skeeter Davis - End Of The World
TTITLE9=Melba Montgomery - No Charge
EXTD=
EXTT0=
EXTT1=
EXTT2=
EXTT3=
EXTT4=
EXTT5=
EXTT6=
EXTT7=
EXTT8=
EXTT9=
PLAYORDER=
